<?xml version="1.0" encoding="utf-8" standalone="no"?><!DOCTYPE svg PUBLIC "-//W3C//DTD SVG 20010904//EN" "http://www.w3.org/TR/2001/REC-SVG-20010904/DTD/svg10.dtd"><svg xmlns="http://www.w3.org/2000/svg" width="450" height="329" xmlns:xlink="http://www.w3.org/1999/xlink"><source><![CDATA[Andrew->China: Says Hello
Note right of China: China thinks\nabout it
China-->Andrew: How are you?
Andrew->>China: I am good thanks!]]></source><desc></desc><defs><marker viewBox="0 0 5 5" markerWidth="5" markerHeight="5" orient="auto" refX="5" refY="2.5" id="markerArrowBlock"><path d="M 0 0 L 5 2.5 L 0 5 z"></path></marker><marker viewBox="0 0 9.6 16" markerWidth="4" markerHeight="16" orient="auto" refX="9.6" refY="8" id="markerArrowOpen"><path d="M 9.6,8 1.92,16 0,13.7 5.76,8 0,2.286 1.92,0 9.6,8 z"></path></marker></defs><g class="title"></g><g class="actor"><path d="M10,20C67.1,23.6 73.2,16.4 99.5,20.0C97.9,41.3 101.0,43.1 99.5,57.6C24.3,61.2 62.8,54.0 10.0,57.6C11.5,51.6 8.5,39.5 10.0,20.0" stroke="#000000" fill="#ffffff" style="stroke-width: 2;"></path><text x="20.796875" y="44.390625" style="font-size: 16px; font-family: danielbd;"><tspan x="20">Andrew</tspan></text></g><g class="actor"><path d="M10,272.359375C60.1,275.9 44.9,268.8 99.5,272.4C101.0,303.9 97.9,300.9 99.5,310.0C74.8,313.5 24.3,306.4 10.0,310.0C8.5,281.4 11.5,299.8 10.0,272.4" stroke="#000000" fill="#ffffff" style="stroke-width: 2;"></path><text x="20.796875" y="296.75" style="font-size: 16px; font-family: danielbd;"><tspan x="20">Andrew</tspan></text></g><path d="M54.7,57.6C63.3,141.4 46.1,187.5 54.7,272.4" stroke="#000000" fill="none" style="stroke-width: 2;"></path><g class="actor"><path d="M193.578125,20C232.4,22.8 242.7,17.2 262.5,20.0C261.0,44.3 264.0,50.4 262.5,57.6C250.7,60.4 207.4,54.8 193.6,57.6C195.1,29.0 192.1,26.0 193.6,20.0" stroke="#000000" fill="#ffffff" style="stroke-width: 2;"></path><text x="203.578125" y="44.390625" style="font-size: 16px; font-family: danielbd;"><tspan x="203.578125">China</tspan></text></g><g class="actor"><path d="M193.578125,272.359375C214.3,269.6 251.5,275.1 262.5,272.4C261.0,295.8 264.0,290.2 262.5,310.0C210.1,312.7 204.6,307.2 193.6,310.0C192.1,294.7 195.1,299.5 193.6,272.4" stroke="#000000" fill="#ffffff" style="stroke-width: 2;"></path><text x="203.578125" y="296.75" style="font-size: 16px; font-family: danielbd;"><tspan x="203.578125">China</tspan></text></g><path d="M228.0,57.6C219.4,109.1 236.6,102.5 228.0,272.4" stroke="#000000" fill="none" style="stroke-width: 2;"></path><g class="signal"><text x="99" y="84.9921875" style="font-size: 16px; font-family: danielbd;"><tspan x="98.203125">Says Hello</tspan></text><path d="M54.7,100.0C141.1,93.1 82.5,106.9 228.0,100.0" stroke="#000000" fill="none" style="stroke-width: 2; marker-end: url(&quot;#markerArrowBlock&quot;);"></path></g><g class="note"><path d="M248.0390625,119.984375C337.6,124.7 285.8,115.3 365.8,120.0C364.0,141.3 367.7,159.3 365.8,166.8C347.0,171.5 337.6,162.1 248.0,166.8C246.2,128.0 249.9,131.2 248.0,120.0" stroke="#000000" fill="#ffffff" style="stroke-width: 2;"></path><text x="253.0390625" y="139.375" style="font-size: 16px; font-family: danielbd;"><tspan x="253.0390625">China thinks</tspan><tspan dy="1.2em" x="253.0390625">about it</tspan></text></g><g class="signal"><text x="81.15625" y="194.1796875" style="font-size: 16px; font-family: danielbd;"><tspan x="81.15625">How are you?</tspan></text><path d="M228.0,209.2C139.1,202.2 134.3,216.1 54.7,209.2" stroke="#000000" fill="none" style="stroke-width: 2; stroke-dasharray: 6, 2; marker-end: url(&quot;#markerArrowBlock&quot;);"></path></g><g class="signal"><text x="64.7265625" y="236.96875" style="font-size: 16px; font-family: danielbd;"><tspan x="64.7265625">I am good thanks!</tspan></text><path d="M54.7,252.4C96.3,259.3 129.1,245.4 228.0,252.4" stroke="#000000" fill="none" style="stroke-width: 2; marker-end: url(&quot;#markerArrowOpen&quot;);"></path></g></svg>
